<?xml version="1.0" encoding="UTF-8"?>
<svg xmlns="http://www.w3.org/2000/svg" xmlns:xlink="http://www.w3.org/1999/xlink" width="40pt" height="40pt" viewBox="0 0 40 40" version="1.1">
<g id="surface1">
<path style=" stroke:none;fill-rule:nonzero;fill:rgb(100%,100%,100%);fill-opacity:1;" d="M 17.753906 2.070312 C 17.433594 2.824219 16.363281 5.28125 15.410156 7.582031 C 14.417969 9.882812 13.664062 11.785156 13.703125 11.863281 C 13.78125 11.902344 14.296875 11.785156 14.855469 11.585938 C 15.609375 11.308594 16.242188 10.398438 17.15625 8.492188 L 18.386719 5.796875 L 19.660156 8.375 C 20.570312 10.277344 21.085938 10.953125 21.683594 10.953125 C 22.277344 10.953125 22.515625 11.269531 22.597656 12.101562 C 22.714844 12.976562 22.597656 13.171875 22.121094 13.015625 C 21.644531 12.816406 21.800781 13.53125 22.753906 16.027344 C 23.390625 17.8125 24.066406 19.597656 24.183594 19.996094 C 24.265625 20.390625 25.335938 21.144531 26.566406 21.699219 C 29.226562 22.890625 29.265625 22.890625 28.511719 21.699219 C 28.15625 21.183594 26.886719 18.6875 25.695312 16.148438 L 23.550781 11.585938 L 25.257812 10.554688 C 28.3125 8.769531 29.503906 6.472656 27.839844 5.597656 C 27.082031 5.203125 27.042969 5.242188 27.480469 5.957031 C 28.117188 6.945312 27.558594 7.660156 24.898438 9.167969 L 22.953125 10.277344 L 20.847656 5.71875 C 19.699219 3.179688 18.625 1.039062 18.507812 0.917969 C 18.425781 0.800781 18.070312 1.316406 17.753906 2.070312 Z M 17.753906 2.070312 "/>
<path style=" stroke:none;fill-rule:nonzero;fill:rgb(100%,100%,100%);fill-opacity:1;" d="M 25.058594 6.3125 C 25.058594 6.589844 24.621094 6.789062 24.105469 6.789062 C 23.351562 6.789062 23.191406 6.945312 23.351562 7.582031 C 23.46875 8.019531 23.707031 8.375 23.90625 8.375 C 24.382812 8.375 25.613281 6.429688 25.296875 6.113281 C 25.175781 5.996094 25.058594 6.074219 25.058594 6.3125 Z M 25.058594 6.3125 "/>
<path style=" stroke:none;fill-rule:nonzero;fill:rgb(100%,100%,100%);fill-opacity:1;" d="M 14.21875 13.332031 C 6.753906 15.910156 2.425781 19.4375 2.425781 23.007812 C 2.425781 25.386719 2.703125 25.507812 5.125 23.960938 C 6.355469 23.167969 8.300781 22.136719 9.492188 21.699219 C 11.558594 20.90625 11.636719 20.789062 12.90625 17.890625 L 14.21875 14.917969 L 17.039062 13.964844 C 19.023438 13.332031 19.777344 12.894531 19.617188 12.5 C 19.339844 11.707031 18.625 11.824219 14.21875 13.332031 Z M 11.003906 16.902344 C 10.445312 18.40625 7.945312 21.859375 7.585938 21.660156 C 6.675781 21.105469 7.230469 19.359375 8.738281 17.851562 C 10.289062 16.265625 11.4375 15.832031 11.003906 16.902344 Z M 11.003906 16.902344 "/>
<path style=" stroke:none;fill-rule:nonzero;fill:rgb(100%,100%,100%);fill-opacity:1;" d="M 12.472656 22.453125 C 8.9375 23.207031 5.203125 25.1875 2.542969 27.648438 L 0.242188 29.789062 L 2.585938 28.402344 C 9.054688 24.59375 16.757812 23.363281 24.183594 24.871094 C 27.242188 25.507812 33.277344 28.042969 34.746094 29.3125 C 35.382812 29.867188 35.460938 29.867188 35.144531 29.351562 C 34.03125 27.410156 29.027344 24.117188 25.457031 23.007812 C 22.238281 21.976562 15.925781 21.738281 12.472656 22.453125 Z M 12.472656 22.453125 "/>
</g>
</svg>
