<svg xmlns="http://www.w3.org/2000/svg" xmlns:xlink="http://www.w3.org/1999/xlink" width="32" height="40" version="1.1"><rect id="backgroundrect" width="100%" height="100%" x="0" y="0" fill="none" stroke="none"/>

<g class="currentLayer" style=""><title>Layer 1</title><g id="surface1" class="" fill="#ffffff" fill-opacity="1">
<path style="stroke: none; fill-rule: nonzero;" d="M 7.308594 2.105469 C 6.375 2.347656 5.683594 3.03125 5.445312 3.953125 C 5.371094 4.234375 5.371094 4.410156 5.371094 20.261719 C 5.371094 35.96875 5.371094 36.289062 5.441406 36.5625 C 5.640625 37.320312 6.132812 37.910156 6.847656 38.25 C 7.402344 38.507812 6.746094 38.496094 15.988281 38.484375 L 24.316406 38.472656 L 24.640625 38.355469 C 25.417969 38.085938 25.976562 37.53125 26.25 36.761719 L 26.359375 36.464844 L 26.359375 4.058594 L 26.242188 3.738281 C 25.941406 2.921875 25.277344 2.320312 24.425781 2.105469 C 24.140625 2.03125 23.96875 2.03125 15.859375 2.035156 C 7.855469 2.035156 7.574219 2.039062 7.308594 2.105469 Z M 24.902344 18.753906 L 24.902344 33.804688 L 6.84375 33.804688 L 6.84375 3.707031 L 24.902344 3.707031 Z M 16.019531 35.054688 C 16.769531 35.386719 16.988281 36.386719 16.453125 37 C 15.851562 37.695312 14.726562 37.542969 14.328125 36.707031 C 14.195312 36.429688 14.1875 35.960938 14.3125 35.691406 C 14.40625 35.496094 14.652344 35.214844 14.835938 35.105469 C 15.167969 34.902344 15.644531 34.882812 16.019531 35.054688 Z M 16.019531 35.054688 " id="svg_1" fill="#ffffff" fill-opacity="1"/>
</g></g></svg>